<svg width="22" height="41" viewBox="0 0 22 41" fill="none" xmlns="http://www.w3.org/2000/svg">
<path fill-rule="evenodd" clip-rule="evenodd" d="M18.9532 0.0549799C18.7044 0.0493056 18.4534 0.0848399 18.2119 0.156722C16.6668 0.616794 15.5666 2.40304 15.5666 5.17118C15.5666 7.64457 15.4611 9.01564 15.305 9.73505C15.149 10.4545 15.0979 10.4296 14.8399 10.6362C14.5819 10.8428 13.9804 11.2427 13.4591 12.1042C12.9389 12.9638 12.4496 14.2585 11.933 16.5372C10.3914 22.3725 10.073 24.8524 9.20046 25.8686C8.76381 26.3772 8.1208 26.7202 6.7877 27.1186C5.45466 27.5169 3.50957 27.9284 0.712222 28.6156C0.306322 28.7134 -0.0051151 29.1138 1.0993e-06 29.5313L0.0872556 39.1242C0.0872556 39.6112 0.530411 40.0543 1.01747 40.0544H15.3196C15.8066 40.0543 16.2498 39.6112 16.2498 39.1242V36.3044C17.2883 36.4114 18.3397 36.0595 19.1857 35.505C19.6694 35.188 19.5346 35.13 20.4648 34.3422C21.395 33.5544 21.395 31.9004 21.395 31.9004V2.96151C21.395 2.96151 21.395 1.55439 20.4648 0.636366C19.5346 -0.281659 19.5006 0.0675053 18.9532 0.0549799ZM19.2294 2.03169C19.1436 1.95594 19.0554 1.90567 18.9532 1.90088C18.8919 1.898 18.8316 1.92034 18.7497 1.94471C18.313 2.07476 17.4271 2.89005 17.4271 5.1714C17.4271 7.69586 17.3377 9.14717 17.1219 10.1423C16.906 11.1373 16.4091 11.7644 16.0027 12.0899C15.5962 12.4154 15.4143 12.4747 15.0579 13.0637C14.7015 13.6527 14.2291 14.7918 13.7353 16.9735C13.7354 16.9828 13.7354 16.9926 13.7353 17.0024C12.6891 20.9604 12.3192 23.3984 11.7004 25.1128C10.8735 28.4023 11.458 30.3714 12.369 31.6824C13.6915 33.5197 15.9113 35.0059 18.1538 33.9498C18.9718 33.4137 19.5346 32.5167 19.5346 31.9004V2.96191C19.5346 2.41715 19.3666 2.15289 19.2294 2.03169ZM10.8429 32.7434C10.0334 31.5785 9.4751 30.0186 9.46208 28.0197C8.8667 28.3731 8.16582 28.6406 7.32546 28.8918C6.31274 29.1944 5.06389 29.4922 3.47336 29.8715C2.97092 29.9913 2.43439 30.1192 1.86044 30.258L1.93313 38.194H14.3893V35.6213C13.4246 35.1526 11.9463 34.3313 10.8429 32.7434Z" fill="#303342"/>
<path d="M9.46206 28.0197C9.47508 30.0186 10.0334 31.5785 10.8429 32.7434C11.9462 34.3313 13.4246 35.1526 14.3893 35.6213V38.194H1.93311L1.86041 30.258C2.43437 30.1192 2.9709 29.9913 3.47334 29.8715C5.06387 29.4922 6.31272 29.1944 7.32544 28.8918C8.1658 28.6406 8.86667 28.3731 9.46206 28.0197Z" fill="white"/>
<path d="M18.9532 1.90089C19.0554 1.90568 19.1436 1.95595 19.2293 2.0317C19.3665 2.1529 19.5345 2.41716 19.5345 2.96192V31.9004C19.5345 32.5167 18.9718 33.4138 18.1538 33.9498C15.9113 35.0059 13.6915 33.5197 12.369 31.6824C11.4579 30.3714 10.8735 28.4023 11.7004 25.1128C12.3191 23.3984 12.6891 20.9605 13.7352 17.0024C13.7354 16.9926 13.7354 16.9828 13.7352 16.9735C14.229 14.7918 14.7015 13.6527 15.0579 13.0637C15.4143 12.4747 15.5961 12.4154 16.0026 12.0899C16.4091 11.7644 16.906 11.1373 17.1218 10.1423C17.3377 9.14718 17.427 7.69587 17.427 5.17141C17.427 2.89005 18.3129 2.07477 18.7497 1.94472C18.8316 1.92035 18.8919 1.898 18.9532 1.90089Z" fill="white"/>
</svg>
