<svg width="22" height="41" viewBox="0 0 22 41" fill="none" xmlns="http://www.w3.org/2000/svg">
<path fill-rule="evenodd" clip-rule="evenodd" d="M2.44181 0.0549799C2.69059 0.0493056 2.94161 0.0848399 3.18305 0.156722C4.72824 0.616794 5.82836 2.40304 5.82836 5.17118C5.82836 7.64457 5.93394 9.01564 6.08998 9.73505C6.24603 10.4545 6.29709 10.4296 6.55509 10.6362C6.81313 10.8428 7.41456 11.2427 7.93586 12.1042C8.45608 12.9638 8.94538 14.2585 9.46202 16.5372C11.0036 22.3725 11.322 24.8524 12.1945 25.8686C12.6312 26.3772 13.2742 26.7202 14.6073 27.1186C15.9403 27.5169 17.8854 27.9284 20.6828 28.6156C21.0887 28.7134 21.4001 29.1138 21.395 29.5313L21.3077 39.1242C21.3077 39.6112 20.8646 40.0543 20.3775 40.0544H6.07542C5.58836 40.0543 5.14521 39.6112 5.14521 39.1242V36.3044C4.10671 36.4114 3.05533 36.0595 2.20925 35.505C1.72559 35.188 1.86042 35.13 0.930204 34.3422C-1.33514e-05 33.5544 -1.33514e-05 31.9004 -1.33514e-05 31.9004V2.96151C-1.33514e-05 2.96151 -1.33514e-05 1.55439 0.930204 0.636366C1.86042 -0.281659 1.89442 0.0675053 2.44181 0.0549799ZM2.16563 2.03169C2.25139 1.95594 2.33958 1.90567 2.44181 1.90088C2.50311 1.898 2.56334 1.92034 2.64525 1.94471C3.08203 2.07476 3.96792 2.89005 3.96792 5.1714C3.96792 7.69586 4.05732 9.14717 4.27313 10.1423C4.48898 11.1373 4.98586 11.7644 5.39232 12.0899C5.79882 12.4154 5.98068 12.4747 6.33709 13.0637C6.69351 13.6527 7.16592 14.7918 7.65972 16.9735C7.65958 16.9828 7.65958 16.9926 7.65972 17.0024C8.70584 20.9604 9.07584 23.3984 9.69457 25.1128C10.5215 28.4023 9.93703 30.3714 9.02598 31.6824C7.70349 33.5197 5.48371 35.0059 3.24119 33.9498C2.4232 33.4137 1.86042 32.5167 1.86042 31.9004V2.96191C1.86042 2.41715 2.02842 2.15289 2.16563 2.03169ZM10.5521 32.7434C11.3616 31.5785 11.9199 30.0186 11.9329 28.0197C12.5283 28.3731 13.2292 28.6406 14.0695 28.8918C15.0822 29.1944 16.3311 29.4922 17.9216 29.8715C18.4241 29.9913 18.9606 30.1192 19.5346 30.258L19.4619 38.194H7.00564V35.6213C7.97037 35.1526 9.44872 34.3313 10.5521 32.7434Z" fill="#303342"/>
<path d="M11.9329 28.0197C11.9199 30.0186 11.3616 31.5785 10.5521 32.7434C9.44874 34.3313 7.97039 35.1526 7.00566 35.6213V38.194H19.4619L19.5346 30.258C18.9606 30.1192 18.4241 29.9913 17.9217 29.8715C16.3311 29.4922 15.0823 29.1944 14.0695 28.8918C13.2292 28.6406 12.5283 28.3731 11.9329 28.0197Z" fill="white"/>
<path d="M2.44183 1.90089C2.3396 1.90568 2.25142 1.95595 2.16565 2.0317C2.02844 2.1529 1.86045 2.41716 1.86045 2.96192V31.9004C1.86045 32.5167 2.42323 33.4138 3.24121 33.9498C5.48373 35.0059 7.70351 33.5197 9.026 31.6824C9.93706 30.3714 10.5215 28.4023 9.6946 25.1128C9.07586 23.3984 8.70587 20.9605 7.65975 17.0024C7.65961 16.9926 7.65961 16.9828 7.65975 16.9735C7.16594 14.7918 6.69353 13.6527 6.33712 13.0637C5.9807 12.4747 5.79885 12.4154 5.39234 12.0899C4.98588 11.7644 4.48901 11.1373 4.27315 10.1423C4.05734 9.14718 3.96795 7.69587 3.96795 5.17141C3.96795 2.89005 3.08205 2.07477 2.64527 1.94472C2.56336 1.92035 2.50313 1.898 2.44183 1.90089Z" fill="white"/>
</svg>
