<svg width="72" height="72" viewBox="0 0 72 72" fill="none" xmlns="http://www.w3.org/2000/svg">
<path d="M43.1671 35.6265L45.5814 30.3779C46.0137 29.5937 46.5571 29.1367 47.1869 29.0132C47.7982 28.8959 48.2613 29.1367 48.4651 29.2726C50.1138 30.1123 49.5951 32.4217 49.0085 33.6752C47.9711 36.0711 47.3968 38.0902 46.8967 39.8686C46.1495 42.5176 45.5012 44.8085 43.6487 47.334C42.1668 49.3593 39.8388 50.5264 37.3504 50.5264C37.1713 50.5264 36.9861 50.5202 36.807 50.5078C34.2444 50.3349 32.0092 48.9332 30.8359 46.7659C29.2058 43.7464 25.0995 40.5602 23.4076 39.3252C22.9074 38.9485 22.6049 38.3496 22.6111 37.7136C22.6172 37.0837 22.9321 36.4971 23.4447 36.1452C24.1609 35.6512 25.1921 35.5215 26.5012 35.7685C27.4398 35.9476 28.3351 36.3242 29.1811 36.9047C30.027 37.4851 30.5272 37.658 30.7804 37.7136C30.7989 36.4045 29.1379 32.0821 28.4895 30.384C28.2549 29.7789 28.0573 29.254 27.9029 28.828C27.5818 27.945 28.0573 26.8706 28.6933 26.3333C29.2058 25.9073 29.8788 25.7467 30.5272 25.9011C31.1817 26.0555 31.7066 26.5001 31.9721 27.1114L31.9906 27.1546L34.3247 33.4591L33.7443 25.5738C33.7072 24.4932 34.6643 23.388 35.7449 23.2521L35.8005 23.2459L36.2389 23.2521C36.8441 23.1965 37.4801 23.4003 37.9617 23.8078C38.4186 24.1907 38.678 24.7094 38.7027 25.2651L39.0793 32.8231L39.74 27.1731C39.9315 26.1852 40.8021 25.4689 41.8086 25.4689L42.1235 25.4689C42.7472 25.4689 43.34 25.7467 43.7413 26.2284C44.1427 26.7038 44.3033 27.3275 44.1983 27.9388L43.1671 35.6265ZM25.2909 37.2443C24.8834 37.2443 24.5623 37.3184 24.3585 37.4604C24.235 37.5468 24.2165 37.6703 24.2165 37.7321C24.2165 37.7877 24.2289 37.9297 24.3647 38.0347C26.5753 39.6463 30.5334 42.8202 32.2561 46.0064C33.17 47.6921 34.9113 48.7789 36.9305 48.9147C39.0732 49.0629 41.1047 48.1182 42.3705 46.3892C44.0501 44.0983 44.6305 42.0421 45.3653 39.4363C45.884 37.6086 46.4706 35.5339 47.5512 33.033L47.5574 33.0145C47.8661 32.3476 48.2428 30.9336 47.7179 30.6928L47.5883 30.631L47.5574 30.6002C47.5389 30.594 47.508 30.5816 47.4771 30.5878C47.3783 30.6125 47.1931 30.7669 46.9893 31.1312L44.3156 36.9479L44.2724 37.0096C43.8401 37.6148 43.0436 37.2999 42.6669 37.1517C41.9506 36.8676 41.3023 36.5157 41.3949 35.8364L42.6237 27.6548C42.6607 27.451 42.5681 27.309 42.5125 27.241C42.457 27.1731 42.3273 27.062 42.1235 27.062L41.8148 27.062C41.5802 27.062 41.3764 27.2225 41.3208 27.451L40.3514 34.9966C40.1785 35.892 38.9064 35.8426 38.6533 35.8241C37.6962 35.75 37.6221 35.0707 37.6159 34.9411L37.1034 25.3392C37.0972 25.191 36.9922 25.086 36.9243 25.0305C36.77 24.9008 36.5538 24.8267 36.3748 24.8514L36.3192 24.8576L35.9055 24.8514C35.6461 24.9131 35.3436 25.2651 35.3436 25.5121L36.029 34.904C36.0351 35.2807 35.8376 35.7685 34.8372 35.9661C33.8431 36.1637 33.4788 35.787 33.3429 35.4351L30.5025 27.7289C30.416 27.5374 30.2493 27.4757 30.1629 27.4572C30.0703 27.4325 29.8912 27.4201 29.7245 27.5621C29.5022 27.7474 29.3663 28.1487 29.4095 28.2784C29.5577 28.686 29.7553 29.2046 29.9838 29.8036C32.1512 35.4536 32.9045 37.9853 31.9659 38.9547C31.0397 39.9365 29.0761 38.7695 28.2734 38.2199C27.6188 37.7691 26.9211 37.4727 26.2048 37.3369C25.8652 37.2752 25.5565 37.2443 25.2909 37.2443Z" fill="#333333"/>
</svg>
