<svg width="72" height="72" viewBox="0 0 72 72" fill="none" xmlns="http://www.w3.org/2000/svg">
<path d="M43.5835 35.8932L46.0011 31.2762C46.4339 30.5863 46.978 30.1844 47.6087 30.0757C48.2208 29.9725 48.6845 30.1844 48.8886 30.3039C50.5394 31.0426 50.0201 33.0741 49.4327 34.1767C48.3939 36.2843 47.8189 38.0604 47.3181 39.6248C46.5699 41.955 45.9207 43.9702 44.0658 46.1918C42.5818 47.9734 40.2508 49 37.7591 49C37.5798 49 37.3943 48.9946 37.2149 48.9837C34.649 48.8316 32.4107 47.5986 31.2359 45.6921C29.6036 43.0359 25.4919 40.2331 23.7977 39.1468C23.2969 38.8155 22.9939 38.2886 23.0001 37.7291C23.0063 37.1751 23.3216 36.659 23.8348 36.3494C24.552 35.9149 25.5846 35.8008 26.8954 36.0181C27.8352 36.1756 28.7318 36.507 29.5789 37.0175C30.4259 37.5281 30.9268 37.6802 31.1803 37.7291C31.1988 36.5776 29.5356 32.7753 28.8864 31.2816C28.6514 30.7493 28.4536 30.2876 28.299 29.9128C27.9775 29.1361 28.4536 28.1909 29.0904 27.7184C29.6036 27.3436 30.2776 27.2023 30.9268 27.3381C31.5822 27.4739 32.1077 27.865 32.3736 28.4028L32.3922 28.4408L34.7294 33.9866L34.1482 27.0503C34.1111 26.0997 35.0694 25.1274 36.1515 25.0079L36.2071 25.0025L36.6461 25.0079C37.252 24.959 37.8889 25.1383 38.3712 25.4968C38.8287 25.8335 39.0884 26.2898 39.1131 26.7787L39.4903 33.4271L40.1519 28.4571C40.3436 27.588 41.2154 26.9579 42.2232 26.9579L42.5386 26.9579C43.1631 26.9579 43.7566 27.2023 44.1585 27.626C44.5604 28.0443 44.7212 28.5929 44.6161 29.1306L43.5835 35.8932ZM25.6835 37.3163C25.2755 37.3163 24.9539 37.3815 24.7499 37.5064C24.6262 37.5824 24.6077 37.6911 24.6077 37.7454C24.6077 37.7943 24.6201 37.9192 24.7561 38.0116C26.9696 39.4292 30.933 42.2212 32.658 45.024C33.5731 46.5068 35.3167 47.4628 37.3386 47.5823C39.4841 47.7127 41.5184 46.8816 42.7859 45.3607C44.4677 43.3455 45.0489 41.5368 45.7847 39.2446C46.304 37.6368 46.8914 35.8117 47.9735 33.6118L47.9797 33.5955C48.2888 33.0089 48.666 31.765 48.1404 31.5532L48.0106 31.4989L47.9797 31.4717C47.9611 31.4663 47.9302 31.4554 47.8993 31.4608C47.8004 31.4826 47.6149 31.6184 47.4108 31.9388L44.7336 37.0556L44.6903 37.1099C44.2575 37.6422 43.4598 37.3652 43.0827 37.2348C42.3654 36.9849 41.7162 36.6753 41.809 36.0778L43.0394 28.8808C43.0765 28.7015 42.9837 28.5766 42.9281 28.5168C42.8724 28.4571 42.7426 28.3593 42.5386 28.3593L42.2294 28.3593C41.9945 28.3593 41.7904 28.5005 41.7348 28.7015L40.764 35.3391C40.5909 36.1267 39.3172 36.0833 39.0637 36.067C38.1053 36.0018 38.0311 35.4043 38.0249 35.2902L37.5117 26.8439C37.5056 26.7135 37.4004 26.6212 37.3324 26.5723C37.1779 26.4582 36.9614 26.393 36.7821 26.4147L36.7265 26.4202L36.3122 26.4147C36.0525 26.4691 35.7496 26.7787 35.7496 26.9959L36.4359 35.2576C36.4421 35.589 36.2442 36.0181 35.2426 36.1919C34.2471 36.3657 33.8823 36.0344 33.7463 35.7248L30.902 28.9459C30.8155 28.7776 30.6485 28.7232 30.562 28.7069C30.4692 28.6852 30.2899 28.6744 30.123 28.7993C29.9004 28.9622 29.7644 29.3153 29.8076 29.4294C29.956 29.7879 30.1539 30.2441 30.3827 30.771C32.5529 35.7411 33.3073 37.9681 32.3674 38.8209C31.44 39.6845 29.4738 38.6579 28.67 38.1745C28.0146 37.778 27.3159 37.5173 26.5986 37.3978C26.2586 37.3434 25.9494 37.3163 25.6835 37.3163Z" fill="#333333"/>
<path d="M29.0045 25.2857C29.1578 25.3469 29.3218 25.3772 29.4869 25.3748C29.6521 25.3724 29.8151 25.3374 29.9666 25.2717C30.1182 25.2061 30.2552 25.1111 30.3698 24.9922C30.4845 24.8733 30.5745 24.733 30.6347 24.5792C30.6948 24.4254 30.724 24.2612 30.7204 24.0961C30.7168 23.9309 30.6806 23.7682 30.6139 23.6171C30.5471 23.4661 30.4511 23.3297 30.3314 23.2159C30.2117 23.1021 30.0707 23.0131 29.9165 22.9541L25.0819 21.0622C24.9287 21.0023 24.7653 20.9731 24.6009 20.9763C24.4365 20.9795 24.2744 21.0151 24.1237 21.081C23.9731 21.1469 23.8369 21.2418 23.7229 21.3603C23.6089 21.4788 23.5194 21.6187 23.4595 21.7718C23.3996 21.9249 23.3704 22.0883 23.3736 22.2527C23.3768 22.4171 23.4124 22.5793 23.4783 22.7299C23.5442 22.8806 23.6391 23.0168 23.7576 23.1307C23.8761 23.2447 24.016 23.3342 24.1691 23.3941L29.0045 25.2857Z" fill="#FF7676"/>
<path d="M29.2741 20.8036C29.5035 21.0437 29.819 21.1828 30.151 21.1904C30.3154 21.1941 30.4789 21.1654 30.6322 21.106C30.7855 21.0465 30.9257 20.9575 31.0445 20.8439C31.1634 20.7303 31.2588 20.5943 31.3252 20.4439C31.3915 20.2934 31.4276 20.1314 31.4314 19.967C31.4351 19.8026 31.4064 19.6391 31.347 19.4857C31.2875 19.3324 31.1984 19.1923 31.0848 19.0734L29.2097 17.1119C28.9803 16.8718 28.6649 16.7326 28.3329 16.7251C28.0008 16.7175 27.6794 16.8422 27.4393 17.0716C27.1992 17.301 27.06 17.6164 27.0525 17.9485C27.0449 18.2805 27.1696 18.6019 27.399 18.842L29.2741 20.8036Z" fill="#FF7676"/>
<path d="M42.1223 16.2854C41.9737 16.215 41.8127 16.1745 41.6484 16.1664C41.4842 16.1582 41.32 16.1825 41.1651 16.2379C41.0103 16.2932 40.8678 16.3785 40.746 16.4889C40.6241 16.5993 40.5251 16.7326 40.4548 16.8813L39.2831 19.3549C39.1411 19.655 39.1241 19.9992 39.2359 20.3118C39.3477 20.6245 39.5792 20.8799 39.8793 21.0219C40.1794 21.1639 40.5237 21.1808 40.8363 21.069C41.1489 20.9572 41.4043 20.7258 41.5463 20.4256L42.718 17.952C42.7884 17.8034 42.8289 17.6424 42.837 17.4782C42.8452 17.3139 42.8209 17.1497 42.7655 16.9949C42.7102 16.84 42.6249 16.6976 42.5145 16.5757C42.4041 16.4538 42.2708 16.3549 42.1221 16.2846L42.1223 16.2854Z" fill="#FF7676"/>
<path d="M43.1346 22.6467C43.3487 22.8994 43.6544 23.057 43.9845 23.0848C44.3146 23.1126 44.6422 23.0084 44.8957 22.7951L50.0466 18.4347C50.1721 18.3284 50.2754 18.1985 50.3507 18.0523C50.4259 17.9061 50.4717 17.7466 50.4853 17.5827C50.4989 17.4189 50.48 17.2539 50.4299 17.0974C50.3798 16.9408 50.2993 16.7956 50.193 16.6701C50.0868 16.5447 49.9568 16.4413 49.8107 16.3661C49.6645 16.2908 49.5049 16.2451 49.3411 16.2315C49.1772 16.2179 49.0123 16.2367 48.8557 16.2868C48.6991 16.337 48.554 16.4175 48.4285 16.5237L43.2776 20.8841C43.0254 21.0992 42.8687 21.4055 42.8419 21.7359C42.8151 22.0663 42.9203 22.3938 43.1346 22.6467V22.6467Z" fill="#FF7676"/>
<path d="M37.1506 19.5629L36.7807 14.7714C36.7551 14.4403 36.599 14.1329 36.3468 13.9169C36.0946 13.7008 35.7668 13.5938 35.4357 13.6194C35.1046 13.6451 34.7972 13.8011 34.5812 14.0534C34.3652 14.3056 34.2582 14.6334 34.2838 14.9645L34.6536 19.756C34.6663 19.9199 34.7112 20.0798 34.7856 20.2264C34.8601 20.373 34.9627 20.5035 35.0876 20.6105C35.2125 20.7175 35.3572 20.7988 35.5135 20.8498C35.6699 20.9008 35.8347 20.9206 35.9987 20.9079C36.1626 20.8952 36.3225 20.8504 36.4691 20.7759C36.6157 20.7015 36.7462 20.5989 36.8532 20.474C36.9602 20.3491 37.0415 20.2043 37.0925 20.048C37.1435 19.8917 37.1633 19.7268 37.1506 19.5629V19.5629Z" fill="#FF7676"/>
</svg>
